<mxfile host="app.diagrams.net" agent="Mozilla/5.0 (Windows NT 10.0; Win64; x64) AppleWebKit/537.36 (KHTML, like Gecko) Chrome/129.0.0.0 Safari/537.36" version="24.8.0">
  <diagram name="Trang-1" id="9Fver6jDBL4KJZNZEv3u">
    <mxGraphModel dx="1235" dy="655" grid="1" gridSize="10" guides="1" tooltips="1" connect="1" arrows="1" fold="1" page="1" pageScale="1" pageWidth="827" pageHeight="1169" math="0" shadow="0">
      <root>
        <mxCell id="0" />
        <mxCell id="1" parent="0" />
        <mxCell id="3v_G94L6314WxcJYYTk_-27" value="" style="group" vertex="1" connectable="0" parent="1">
          <mxGeometry x="80" y="190" width="720" height="580" as="geometry" />
        </mxCell>
        <mxCell id="3v_G94L6314WxcJYYTk_-28" value="" style="endArrow=none;dashed=1;html=1;dashPattern=1 3;strokeWidth=2;rounded=0;" edge="1" parent="3v_G94L6314WxcJYYTk_-27">
          <mxGeometry width="50" height="50" relative="1" as="geometry">
            <mxPoint as="sourcePoint" />
            <mxPoint x="720" as="targetPoint" />
          </mxGeometry>
        </mxCell>
        <mxCell id="3v_G94L6314WxcJYYTk_-29" value="" style="endArrow=none;dashed=1;html=1;dashPattern=1 3;strokeWidth=2;rounded=0;" edge="1" parent="3v_G94L6314WxcJYYTk_-27">
          <mxGeometry width="50" height="50" relative="1" as="geometry">
            <mxPoint y="580" as="sourcePoint" />
            <mxPoint x="720" y="580" as="targetPoint" />
          </mxGeometry>
        </mxCell>
        <mxCell id="3v_G94L6314WxcJYYTk_-30" value="" style="endArrow=none;dashed=1;html=1;dashPattern=1 3;strokeWidth=2;rounded=0;" edge="1" parent="3v_G94L6314WxcJYYTk_-27">
          <mxGeometry width="50" height="50" relative="1" as="geometry">
            <mxPoint x="1.565217391304348" y="580" as="sourcePoint" />
            <mxPoint x="1.565217391304348" as="targetPoint" />
          </mxGeometry>
        </mxCell>
        <mxCell id="3v_G94L6314WxcJYYTk_-31" value="" style="endArrow=none;dashed=1;html=1;dashPattern=1 3;strokeWidth=2;rounded=0;" edge="1" parent="3v_G94L6314WxcJYYTk_-27">
          <mxGeometry width="50" height="50" relative="1" as="geometry">
            <mxPoint x="715.304347826087" y="580" as="sourcePoint" />
            <mxPoint x="715.304347826087" as="targetPoint" />
          </mxGeometry>
        </mxCell>
        <mxCell id="3v_G94L6314WxcJYYTk_-32" value="MAIN-CONTENT" style="text;html=1;align=center;verticalAlign=middle;resizable=0;points=[];autosize=1;strokeColor=none;fillColor=none;" vertex="1" parent="3v_G94L6314WxcJYYTk_-27">
          <mxGeometry width="120" height="30" as="geometry" />
        </mxCell>
        <mxCell id="3v_G94L6314WxcJYYTk_-37" value="" style="group" vertex="1" connectable="0" parent="1">
          <mxGeometry x="80" y="60" width="720" height="100.00000000000004" as="geometry" />
        </mxCell>
        <mxCell id="3v_G94L6314WxcJYYTk_-38" value="" style="endArrow=none;dashed=1;html=1;dashPattern=1 3;strokeWidth=2;rounded=0;" edge="1" parent="3v_G94L6314WxcJYYTk_-37">
          <mxGeometry width="50" height="50" relative="1" as="geometry">
            <mxPoint as="sourcePoint" />
            <mxPoint x="720" as="targetPoint" />
          </mxGeometry>
        </mxCell>
        <mxCell id="3v_G94L6314WxcJYYTk_-39" value="" style="endArrow=none;dashed=1;html=1;dashPattern=1 3;strokeWidth=2;rounded=0;" edge="1" parent="3v_G94L6314WxcJYYTk_-37">
          <mxGeometry width="50" height="50" relative="1" as="geometry">
            <mxPoint y="100" as="sourcePoint" />
            <mxPoint x="720" y="100" as="targetPoint" />
          </mxGeometry>
        </mxCell>
        <mxCell id="3v_G94L6314WxcJYYTk_-40" value="" style="endArrow=none;dashed=1;html=1;dashPattern=1 3;strokeWidth=2;rounded=0;" edge="1" parent="3v_G94L6314WxcJYYTk_-37">
          <mxGeometry width="50" height="50" relative="1" as="geometry">
            <mxPoint x="1.5652173913043481" y="100" as="sourcePoint" />
            <mxPoint x="1.5652173913043481" as="targetPoint" />
          </mxGeometry>
        </mxCell>
        <mxCell id="3v_G94L6314WxcJYYTk_-41" value="" style="endArrow=none;dashed=1;html=1;dashPattern=1 3;strokeWidth=2;rounded=0;" edge="1" parent="3v_G94L6314WxcJYYTk_-37">
          <mxGeometry width="50" height="50" relative="1" as="geometry">
            <mxPoint x="715.3043478260871" y="100" as="sourcePoint" />
            <mxPoint x="715.3043478260871" as="targetPoint" />
          </mxGeometry>
        </mxCell>
        <mxCell id="3v_G94L6314WxcJYYTk_-42" value="Navbar" style="text;html=1;align=center;verticalAlign=middle;resizable=0;points=[];autosize=1;strokeColor=none;fillColor=none;" vertex="1" parent="3v_G94L6314WxcJYYTk_-37">
          <mxGeometry width="60" height="30" as="geometry" />
        </mxCell>
        <mxCell id="3v_G94L6314WxcJYYTk_-45" style="edgeStyle=orthogonalEdgeStyle;rounded=0;orthogonalLoop=1;jettySize=auto;html=1;exitX=0.5;exitY=1;exitDx=0;exitDy=0;" edge="1" parent="3v_G94L6314WxcJYYTk_-37">
          <mxGeometry relative="1" as="geometry">
            <mxPoint x="77.83783783783784" y="62.5" as="sourcePoint" />
            <mxPoint x="77.83783783783784" y="62.5" as="targetPoint" />
          </mxGeometry>
        </mxCell>
        <mxCell id="3v_G94L6314WxcJYYTk_-36" style="edgeStyle=orthogonalEdgeStyle;rounded=0;orthogonalLoop=1;jettySize=auto;html=1;exitX=0.5;exitY=1;exitDx=0;exitDy=0;" edge="1" parent="3v_G94L6314WxcJYYTk_-37">
          <mxGeometry relative="1" as="geometry">
            <mxPoint x="97.2972972972973" y="66.66666666666666" as="sourcePoint" />
            <mxPoint x="97.2972972972973" y="66.66666666666666" as="targetPoint" />
          </mxGeometry>
        </mxCell>
        <mxCell id="3v_G94L6314WxcJYYTk_-25" value="" style="group" vertex="1" connectable="0" parent="3v_G94L6314WxcJYYTk_-37">
          <mxGeometry y="-33.33333333333333" width="720" height="133.33333333333337" as="geometry" />
        </mxCell>
        <mxCell id="3v_G94L6314WxcJYYTk_-21" value="" style="endArrow=none;dashed=1;html=1;dashPattern=1 3;strokeWidth=2;rounded=0;" edge="1" parent="3v_G94L6314WxcJYYTk_-25">
          <mxGeometry width="50" height="50" relative="1" as="geometry">
            <mxPoint as="sourcePoint" />
            <mxPoint x="720" as="targetPoint" />
          </mxGeometry>
        </mxCell>
        <mxCell id="3v_G94L6314WxcJYYTk_-22" value="" style="endArrow=none;dashed=1;html=1;dashPattern=1 3;strokeWidth=2;rounded=0;" edge="1" parent="3v_G94L6314WxcJYYTk_-25">
          <mxGeometry width="50" height="50" relative="1" as="geometry">
            <mxPoint y="133.33333333333331" as="sourcePoint" />
            <mxPoint x="720" y="133.33333333333331" as="targetPoint" />
          </mxGeometry>
        </mxCell>
        <mxCell id="3v_G94L6314WxcJYYTk_-23" value="" style="endArrow=none;dashed=1;html=1;dashPattern=1 3;strokeWidth=2;rounded=0;" edge="1" parent="3v_G94L6314WxcJYYTk_-25">
          <mxGeometry width="50" height="50" relative="1" as="geometry">
            <mxPoint x="1.5652173913043481" y="133.33333333333331" as="sourcePoint" />
            <mxPoint x="1.5652173913043481" as="targetPoint" />
          </mxGeometry>
        </mxCell>
        <mxCell id="3v_G94L6314WxcJYYTk_-24" value="" style="endArrow=none;dashed=1;html=1;dashPattern=1 3;strokeWidth=2;rounded=0;" edge="1" parent="3v_G94L6314WxcJYYTk_-25">
          <mxGeometry width="50" height="50" relative="1" as="geometry">
            <mxPoint x="715.3043478260871" y="133.33333333333331" as="sourcePoint" />
            <mxPoint x="715.3043478260871" as="targetPoint" />
          </mxGeometry>
        </mxCell>
        <mxCell id="3v_G94L6314WxcJYYTk_-34" value="Header" style="text;html=1;align=center;verticalAlign=middle;resizable=0;points=[];autosize=1;strokeColor=none;fillColor=none;" vertex="1" parent="3v_G94L6314WxcJYYTk_-25">
          <mxGeometry width="60" height="30" as="geometry" />
        </mxCell>
        <mxCell id="3v_G94L6314WxcJYYTk_-16" value="Home" style="rounded=1;whiteSpace=wrap;html=1;" vertex="1" parent="3v_G94L6314WxcJYYTk_-25">
          <mxGeometry x="100" y="63.33333333333337" width="50" height="20" as="geometry" />
        </mxCell>
        <mxCell id="3v_G94L6314WxcJYYTk_-17" value="Categories" style="rounded=1;whiteSpace=wrap;html=1;" vertex="1" parent="3v_G94L6314WxcJYYTk_-25">
          <mxGeometry x="330" y="63.33333333333337" width="70" height="20" as="geometry" />
        </mxCell>
        <mxCell id="3v_G94L6314WxcJYYTk_-18" value="Recent" style="rounded=1;whiteSpace=wrap;html=1;" vertex="1" parent="3v_G94L6314WxcJYYTk_-25">
          <mxGeometry x="250" y="63.33333333333337" width="50" height="20" as="geometry" />
        </mxCell>
        <mxCell id="3v_G94L6314WxcJYYTk_-66" value="About" style="rounded=1;whiteSpace=wrap;html=1;" vertex="1" parent="3v_G94L6314WxcJYYTk_-25">
          <mxGeometry x="170" y="63.33333333333337" width="50" height="20" as="geometry" />
        </mxCell>
        <mxCell id="3v_G94L6314WxcJYYTk_-69" value="Login/Logout" style="rounded=1;whiteSpace=wrap;html=1;" vertex="1" parent="3v_G94L6314WxcJYYTk_-25">
          <mxGeometry x="630" y="63.33333333333337" width="80" height="20" as="geometry" />
        </mxCell>
        <mxCell id="3v_G94L6314WxcJYYTk_-83" value="Profile" style="ellipse;whiteSpace=wrap;html=1;aspect=fixed;" vertex="1" parent="3v_G94L6314WxcJYYTk_-25">
          <mxGeometry x="560" y="53.33333333333337" width="40" height="40" as="geometry" />
        </mxCell>
        <mxCell id="3v_G94L6314WxcJYYTk_-70" value="Logo" style="text;html=1;align=center;verticalAlign=middle;whiteSpace=wrap;rounded=0;" vertex="1" parent="3v_G94L6314WxcJYYTk_-25">
          <mxGeometry x="10" y="58.33333333333337" width="60" height="30" as="geometry" />
        </mxCell>
        <mxCell id="3v_G94L6314WxcJYYTk_-206" value="" style="group" vertex="1" connectable="0" parent="3v_G94L6314WxcJYYTk_-25">
          <mxGeometry x="420" y="63.333333333333314" width="110" height="30.000000000000014" as="geometry" />
        </mxCell>
        <mxCell id="3v_G94L6314WxcJYYTk_-204" value="icon" style="ellipse;whiteSpace=wrap;html=1;aspect=fixed;" vertex="1" parent="3v_G94L6314WxcJYYTk_-206">
          <mxGeometry x="40" width="30" height="30" as="geometry" />
        </mxCell>
        <mxCell id="3v_G94L6314WxcJYYTk_-205" value="icon" style="ellipse;whiteSpace=wrap;html=1;aspect=fixed;" vertex="1" parent="3v_G94L6314WxcJYYTk_-206">
          <mxGeometry x="80" width="30" height="30" as="geometry" />
        </mxCell>
        <mxCell id="3v_G94L6314WxcJYYTk_-203" value="icon" style="ellipse;whiteSpace=wrap;html=1;aspect=fixed;" vertex="1" parent="3v_G94L6314WxcJYYTk_-206">
          <mxGeometry y="1.4210854715202004e-14" width="30" height="30" as="geometry" />
        </mxCell>
        <mxCell id="3v_G94L6314WxcJYYTk_-207" value="Social Media" style="text;html=1;align=center;verticalAlign=middle;resizable=0;points=[];autosize=1;strokeColor=none;fillColor=none;" vertex="1" parent="3v_G94L6314WxcJYYTk_-25">
          <mxGeometry x="410" y="33.33333333333333" width="90" height="30" as="geometry" />
        </mxCell>
        <mxCell id="3v_G94L6314WxcJYYTk_-87" value="" style="group" vertex="1" connectable="0" parent="1">
          <mxGeometry x="110" y="240" width="200" height="190" as="geometry" />
        </mxCell>
        <mxCell id="3v_G94L6314WxcJYYTk_-88" value="" style="endArrow=none;dashed=1;html=1;dashPattern=1 3;strokeWidth=2;rounded=0;" edge="1" parent="3v_G94L6314WxcJYYTk_-87">
          <mxGeometry width="50" height="50" relative="1" as="geometry">
            <mxPoint as="sourcePoint" />
            <mxPoint x="200" as="targetPoint" />
          </mxGeometry>
        </mxCell>
        <mxCell id="3v_G94L6314WxcJYYTk_-89" value="" style="endArrow=none;dashed=1;html=1;dashPattern=1 3;strokeWidth=2;rounded=0;" edge="1" parent="3v_G94L6314WxcJYYTk_-87">
          <mxGeometry width="50" height="50" relative="1" as="geometry">
            <mxPoint y="190" as="sourcePoint" />
            <mxPoint x="200" y="190" as="targetPoint" />
          </mxGeometry>
        </mxCell>
        <mxCell id="3v_G94L6314WxcJYYTk_-90" value="" style="endArrow=none;dashed=1;html=1;dashPattern=1 3;strokeWidth=2;rounded=0;" edge="1" parent="3v_G94L6314WxcJYYTk_-87">
          <mxGeometry width="50" height="50" relative="1" as="geometry">
            <mxPoint x="0.43478260869565216" y="190" as="sourcePoint" />
            <mxPoint x="0.43478260869565216" as="targetPoint" />
          </mxGeometry>
        </mxCell>
        <mxCell id="3v_G94L6314WxcJYYTk_-91" value="" style="endArrow=none;dashed=1;html=1;dashPattern=1 3;strokeWidth=2;rounded=0;" edge="1" parent="3v_G94L6314WxcJYYTk_-87">
          <mxGeometry width="50" height="50" relative="1" as="geometry">
            <mxPoint x="198.69565217391303" y="190" as="sourcePoint" />
            <mxPoint x="198.69565217391303" as="targetPoint" />
          </mxGeometry>
        </mxCell>
        <mxCell id="3v_G94L6314WxcJYYTk_-93" value="Math" style="rounded=1;whiteSpace=wrap;html=1;" vertex="1" parent="1">
          <mxGeometry x="150" y="270" width="90" height="30" as="geometry" />
        </mxCell>
        <mxCell id="3v_G94L6314WxcJYYTk_-94" value="Categories" style="text;html=1;align=center;verticalAlign=middle;resizable=0;points=[];autosize=1;strokeColor=none;fillColor=none;" vertex="1" parent="1">
          <mxGeometry x="110" y="240" width="80" height="30" as="geometry" />
        </mxCell>
        <mxCell id="3v_G94L6314WxcJYYTk_-95" value="Science" style="rounded=1;whiteSpace=wrap;html=1;" vertex="1" parent="1">
          <mxGeometry x="150" y="310" width="90" height="30" as="geometry" />
        </mxCell>
        <mxCell id="3v_G94L6314WxcJYYTk_-96" value="Programming" style="rounded=1;whiteSpace=wrap;html=1;" vertex="1" parent="1">
          <mxGeometry x="150" y="350" width="90" height="30" as="geometry" />
        </mxCell>
        <mxCell id="3v_G94L6314WxcJYYTk_-97" value="Other" style="rounded=1;whiteSpace=wrap;html=1;" vertex="1" parent="1">
          <mxGeometry x="150" y="390" width="90" height="30" as="geometry" />
        </mxCell>
        <mxCell id="3v_G94L6314WxcJYYTk_-98" value="Thread-1" style="rounded=1;whiteSpace=wrap;html=1;" vertex="1" parent="1">
          <mxGeometry x="150" y="500" width="90" height="30" as="geometry" />
        </mxCell>
        <mxCell id="3v_G94L6314WxcJYYTk_-99" value="Thread-2" style="rounded=1;whiteSpace=wrap;html=1;" vertex="1" parent="1">
          <mxGeometry x="150" y="540" width="90" height="30" as="geometry" />
        </mxCell>
        <mxCell id="3v_G94L6314WxcJYYTk_-101" value="Thread-1" style="rounded=1;whiteSpace=wrap;html=1;" vertex="1" parent="1">
          <mxGeometry x="150" y="650" width="90" height="30" as="geometry" />
        </mxCell>
        <mxCell id="3v_G94L6314WxcJYYTk_-102" value="Thread-2" style="rounded=1;whiteSpace=wrap;html=1;" vertex="1" parent="1">
          <mxGeometry x="150" y="690" width="90" height="30" as="geometry" />
        </mxCell>
        <mxCell id="3v_G94L6314WxcJYYTk_-104" value="" style="group" vertex="1" connectable="0" parent="1">
          <mxGeometry x="110" y="460" width="200" height="130" as="geometry" />
        </mxCell>
        <mxCell id="3v_G94L6314WxcJYYTk_-105" value="" style="endArrow=none;dashed=1;html=1;dashPattern=1 3;strokeWidth=2;rounded=0;" edge="1" parent="3v_G94L6314WxcJYYTk_-104">
          <mxGeometry width="50" height="50" relative="1" as="geometry">
            <mxPoint as="sourcePoint" />
            <mxPoint x="200" as="targetPoint" />
          </mxGeometry>
        </mxCell>
        <mxCell id="3v_G94L6314WxcJYYTk_-106" value="" style="endArrow=none;dashed=1;html=1;dashPattern=1 3;strokeWidth=2;rounded=0;" edge="1" parent="3v_G94L6314WxcJYYTk_-104">
          <mxGeometry width="50" height="50" relative="1" as="geometry">
            <mxPoint y="130" as="sourcePoint" />
            <mxPoint x="200" y="130" as="targetPoint" />
          </mxGeometry>
        </mxCell>
        <mxCell id="3v_G94L6314WxcJYYTk_-107" value="" style="endArrow=none;dashed=1;html=1;dashPattern=1 3;strokeWidth=2;rounded=0;" edge="1" parent="3v_G94L6314WxcJYYTk_-104">
          <mxGeometry width="50" height="50" relative="1" as="geometry">
            <mxPoint x="0.43478260869565216" y="130" as="sourcePoint" />
            <mxPoint x="0.43478260869565216" as="targetPoint" />
          </mxGeometry>
        </mxCell>
        <mxCell id="3v_G94L6314WxcJYYTk_-108" value="" style="endArrow=none;dashed=1;html=1;dashPattern=1 3;strokeWidth=2;rounded=0;" edge="1" parent="3v_G94L6314WxcJYYTk_-104">
          <mxGeometry width="50" height="50" relative="1" as="geometry">
            <mxPoint x="198.69565217391303" y="130" as="sourcePoint" />
            <mxPoint x="198.69565217391303" as="targetPoint" />
          </mxGeometry>
        </mxCell>
        <mxCell id="3v_G94L6314WxcJYYTk_-100" value="Trending" style="text;html=1;align=center;verticalAlign=middle;resizable=0;points=[];autosize=1;strokeColor=none;fillColor=none;" vertex="1" parent="3v_G94L6314WxcJYYTk_-104">
          <mxGeometry y="9.5" width="70" height="30" as="geometry" />
        </mxCell>
        <mxCell id="3v_G94L6314WxcJYYTk_-109" value="" style="group" vertex="1" connectable="0" parent="1">
          <mxGeometry x="110" y="620" width="200" height="120" as="geometry" />
        </mxCell>
        <mxCell id="3v_G94L6314WxcJYYTk_-110" value="" style="endArrow=none;dashed=1;html=1;dashPattern=1 3;strokeWidth=2;rounded=0;" edge="1" parent="3v_G94L6314WxcJYYTk_-109">
          <mxGeometry width="50" height="50" relative="1" as="geometry">
            <mxPoint as="sourcePoint" />
            <mxPoint x="200" as="targetPoint" />
          </mxGeometry>
        </mxCell>
        <mxCell id="3v_G94L6314WxcJYYTk_-111" value="" style="endArrow=none;dashed=1;html=1;dashPattern=1 3;strokeWidth=2;rounded=0;" edge="1" parent="3v_G94L6314WxcJYYTk_-109">
          <mxGeometry width="50" height="50" relative="1" as="geometry">
            <mxPoint y="120" as="sourcePoint" />
            <mxPoint x="200" y="120" as="targetPoint" />
          </mxGeometry>
        </mxCell>
        <mxCell id="3v_G94L6314WxcJYYTk_-112" value="" style="endArrow=none;dashed=1;html=1;dashPattern=1 3;strokeWidth=2;rounded=0;" edge="1" parent="3v_G94L6314WxcJYYTk_-109">
          <mxGeometry width="50" height="50" relative="1" as="geometry">
            <mxPoint x="0.43478260869565216" y="120" as="sourcePoint" />
            <mxPoint x="0.43478260869565216" as="targetPoint" />
          </mxGeometry>
        </mxCell>
        <mxCell id="3v_G94L6314WxcJYYTk_-113" value="" style="endArrow=none;dashed=1;html=1;dashPattern=1 3;strokeWidth=2;rounded=0;" edge="1" parent="3v_G94L6314WxcJYYTk_-109">
          <mxGeometry width="50" height="50" relative="1" as="geometry">
            <mxPoint x="198.69565217391303" y="120" as="sourcePoint" />
            <mxPoint x="198.69565217391303" as="targetPoint" />
          </mxGeometry>
        </mxCell>
        <mxCell id="3v_G94L6314WxcJYYTk_-103" value="Recent" style="text;html=1;align=center;verticalAlign=middle;resizable=0;points=[];autosize=1;strokeColor=none;fillColor=none;" vertex="1" parent="3v_G94L6314WxcJYYTk_-109">
          <mxGeometry width="60" height="30" as="geometry" />
        </mxCell>
        <mxCell id="3v_G94L6314WxcJYYTk_-123" value="" style="group" vertex="1" connectable="0" parent="1">
          <mxGeometry x="334" y="300" width="496" height="100" as="geometry" />
        </mxCell>
        <mxCell id="3v_G94L6314WxcJYYTk_-116" value="&lt;h1 style=&quot;margin-top: 0px;&quot;&gt;Thread 1&lt;/h1&gt;&lt;p&gt;Lorem ipsum dolor sit amet, consectetur adipisicing elit, sed do eiusmod tempor incididunt ut labore et dolore magna aliqua.&lt;/p&gt;" style="text;html=1;whiteSpace=wrap;overflow=hidden;rounded=0;" vertex="1" parent="3v_G94L6314WxcJYYTk_-123">
          <mxGeometry width="376" height="100" as="geometry" />
        </mxCell>
        <mxCell id="3v_G94L6314WxcJYYTk_-119" value="Tag" style="text;html=1;align=center;verticalAlign=middle;whiteSpace=wrap;rounded=0;" vertex="1" parent="3v_G94L6314WxcJYYTk_-123">
          <mxGeometry x="106" y="10" width="60" height="30" as="geometry" />
        </mxCell>
        <mxCell id="3v_G94L6314WxcJYYTk_-120" value="Posted-by-user" style="text;html=1;align=center;verticalAlign=middle;whiteSpace=wrap;rounded=0;" vertex="1" parent="3v_G94L6314WxcJYYTk_-123">
          <mxGeometry x="158" y="10" width="98" height="30" as="geometry" />
        </mxCell>
        <mxCell id="3v_G94L6314WxcJYYTk_-121" value="Date" style="text;html=1;align=center;verticalAlign=middle;whiteSpace=wrap;rounded=0;" vertex="1" parent="3v_G94L6314WxcJYYTk_-123">
          <mxGeometry x="256" y="10" width="40" height="30" as="geometry" />
        </mxCell>
        <mxCell id="3v_G94L6314WxcJYYTk_-124" value="" style="group" vertex="1" connectable="0" parent="1">
          <mxGeometry x="330" y="435" width="376" height="100" as="geometry" />
        </mxCell>
        <mxCell id="3v_G94L6314WxcJYYTk_-125" value="&lt;h1 style=&quot;margin-top: 0px;&quot;&gt;Thread 2&lt;/h1&gt;&lt;p&gt;Lorem ipsum dolor sit amet, consectetur adipisicing elit, sed do eiusmod tempor incididunt ut labore et dolore magna aliqua.&lt;/p&gt;" style="text;html=1;whiteSpace=wrap;overflow=hidden;rounded=0;" vertex="1" parent="3v_G94L6314WxcJYYTk_-124">
          <mxGeometry width="376" height="100" as="geometry" />
        </mxCell>
        <mxCell id="3v_G94L6314WxcJYYTk_-126" value="Tag" style="text;html=1;align=center;verticalAlign=middle;whiteSpace=wrap;rounded=0;" vertex="1" parent="3v_G94L6314WxcJYYTk_-124">
          <mxGeometry x="106" y="10" width="60" height="30" as="geometry" />
        </mxCell>
        <mxCell id="3v_G94L6314WxcJYYTk_-127" value="Posted-by-user" style="text;html=1;align=center;verticalAlign=middle;whiteSpace=wrap;rounded=0;" vertex="1" parent="3v_G94L6314WxcJYYTk_-124">
          <mxGeometry x="158" y="10" width="98" height="30" as="geometry" />
        </mxCell>
        <mxCell id="3v_G94L6314WxcJYYTk_-128" value="Date" style="text;html=1;align=center;verticalAlign=middle;whiteSpace=wrap;rounded=0;" vertex="1" parent="3v_G94L6314WxcJYYTk_-124">
          <mxGeometry x="256" y="10" width="40" height="30" as="geometry" />
        </mxCell>
        <mxCell id="3v_G94L6314WxcJYYTk_-129" value="" style="group" vertex="1" connectable="0" parent="1">
          <mxGeometry x="330" y="570" width="376" height="100" as="geometry" />
        </mxCell>
        <mxCell id="3v_G94L6314WxcJYYTk_-130" value="&lt;h1 style=&quot;margin-top: 0px;&quot;&gt;Thread 3&lt;/h1&gt;&lt;p&gt;Lorem ipsum dolor sit amet, consectetur adipisicing elit, sed do eiusmod tempor incididunt ut labore et dolore magna aliqua.&lt;/p&gt;" style="text;html=1;whiteSpace=wrap;overflow=hidden;rounded=0;" vertex="1" parent="3v_G94L6314WxcJYYTk_-129">
          <mxGeometry width="376" height="100" as="geometry" />
        </mxCell>
        <mxCell id="3v_G94L6314WxcJYYTk_-131" value="Tag" style="text;html=1;align=center;verticalAlign=middle;whiteSpace=wrap;rounded=0;" vertex="1" parent="3v_G94L6314WxcJYYTk_-129">
          <mxGeometry x="106" y="10" width="60" height="30" as="geometry" />
        </mxCell>
        <mxCell id="3v_G94L6314WxcJYYTk_-132" value="Posted-by-user" style="text;html=1;align=center;verticalAlign=middle;whiteSpace=wrap;rounded=0;" vertex="1" parent="3v_G94L6314WxcJYYTk_-129">
          <mxGeometry x="158" y="10" width="98" height="30" as="geometry" />
        </mxCell>
        <mxCell id="3v_G94L6314WxcJYYTk_-133" value="Date" style="text;html=1;align=center;verticalAlign=middle;whiteSpace=wrap;rounded=0;" vertex="1" parent="3v_G94L6314WxcJYYTk_-129">
          <mxGeometry x="256" y="10" width="40" height="30" as="geometry" />
        </mxCell>
        <mxCell id="3v_G94L6314WxcJYYTk_-139" value="" style="group" vertex="1" connectable="0" parent="1">
          <mxGeometry x="320" y="240" width="440" height="500" as="geometry" />
        </mxCell>
        <mxCell id="3v_G94L6314WxcJYYTk_-140" value="" style="endArrow=none;dashed=1;html=1;dashPattern=1 3;strokeWidth=2;rounded=0;" edge="1" parent="3v_G94L6314WxcJYYTk_-139">
          <mxGeometry width="50" height="50" relative="1" as="geometry">
            <mxPoint as="sourcePoint" />
            <mxPoint x="440" as="targetPoint" />
          </mxGeometry>
        </mxCell>
        <mxCell id="3v_G94L6314WxcJYYTk_-141" value="" style="endArrow=none;dashed=1;html=1;dashPattern=1 3;strokeWidth=2;rounded=0;" edge="1" parent="3v_G94L6314WxcJYYTk_-139">
          <mxGeometry width="50" height="50" relative="1" as="geometry">
            <mxPoint y="499.99999999999994" as="sourcePoint" />
            <mxPoint x="440" y="499.99999999999994" as="targetPoint" />
          </mxGeometry>
        </mxCell>
        <mxCell id="3v_G94L6314WxcJYYTk_-142" value="" style="endArrow=none;dashed=1;html=1;dashPattern=1 3;strokeWidth=2;rounded=0;" edge="1" parent="3v_G94L6314WxcJYYTk_-139">
          <mxGeometry width="50" height="50" relative="1" as="geometry">
            <mxPoint x="0.9565217391304348" y="499.99999999999994" as="sourcePoint" />
            <mxPoint x="0.9565217391304348" as="targetPoint" />
          </mxGeometry>
        </mxCell>
        <mxCell id="3v_G94L6314WxcJYYTk_-143" value="" style="endArrow=none;dashed=1;html=1;dashPattern=1 3;strokeWidth=2;rounded=0;" edge="1" parent="3v_G94L6314WxcJYYTk_-139">
          <mxGeometry width="50" height="50" relative="1" as="geometry">
            <mxPoint x="437.13043478260875" y="499.99999999999994" as="sourcePoint" />
            <mxPoint x="437.13043478260875" as="targetPoint" />
          </mxGeometry>
        </mxCell>
        <mxCell id="3v_G94L6314WxcJYYTk_-114" value="ThreadList" style="text;html=1;align=center;verticalAlign=middle;resizable=0;points=[];autosize=1;strokeColor=none;fillColor=none;" vertex="1" parent="3v_G94L6314WxcJYYTk_-139">
          <mxGeometry width="80" height="30" as="geometry" />
        </mxCell>
        <mxCell id="3v_G94L6314WxcJYYTk_-26" value="Ask a question?" style="rounded=1;whiteSpace=wrap;html=1;" vertex="1" parent="3v_G94L6314WxcJYYTk_-139">
          <mxGeometry x="327.4418604651163" y="10.204081632653061" width="92.09302325581396" height="30.612244897959183" as="geometry" />
        </mxCell>
        <mxCell id="3v_G94L6314WxcJYYTk_-187" value="" style="group" vertex="1" connectable="0" parent="1">
          <mxGeometry x="80" y="810" width="720" height="110" as="geometry" />
        </mxCell>
        <mxCell id="3v_G94L6314WxcJYYTk_-156" value="" style="endArrow=none;dashed=1;html=1;dashPattern=1 3;strokeWidth=2;rounded=0;" edge="1" parent="3v_G94L6314WxcJYYTk_-187">
          <mxGeometry width="50" height="50" relative="1" as="geometry">
            <mxPoint as="sourcePoint" />
            <mxPoint x="720" as="targetPoint" />
          </mxGeometry>
        </mxCell>
        <mxCell id="3v_G94L6314WxcJYYTk_-184" value="" style="endArrow=none;dashed=1;html=1;dashPattern=1 3;strokeWidth=2;rounded=0;" edge="1" parent="3v_G94L6314WxcJYYTk_-187">
          <mxGeometry width="50" height="50" relative="1" as="geometry">
            <mxPoint y="110" as="sourcePoint" />
            <mxPoint x="720" y="110" as="targetPoint" />
          </mxGeometry>
        </mxCell>
        <mxCell id="3v_G94L6314WxcJYYTk_-185" value="" style="endArrow=none;dashed=1;html=1;dashPattern=1 3;strokeWidth=2;rounded=0;" edge="1" parent="3v_G94L6314WxcJYYTk_-187">
          <mxGeometry width="50" height="50" relative="1" as="geometry">
            <mxPoint y="110" as="sourcePoint" />
            <mxPoint as="targetPoint" />
          </mxGeometry>
        </mxCell>
        <mxCell id="3v_G94L6314WxcJYYTk_-186" value="" style="endArrow=none;dashed=1;html=1;dashPattern=1 3;strokeWidth=2;rounded=0;" edge="1" parent="3v_G94L6314WxcJYYTk_-187">
          <mxGeometry width="50" height="50" relative="1" as="geometry">
            <mxPoint x="718.82" y="110" as="sourcePoint" />
            <mxPoint x="718.82" as="targetPoint" />
          </mxGeometry>
        </mxCell>
        <mxCell id="3v_G94L6314WxcJYYTk_-188" value="About us" style="rounded=1;whiteSpace=wrap;html=1;" vertex="1" parent="3v_G94L6314WxcJYYTk_-187">
          <mxGeometry x="140" y="10" width="70" height="20" as="geometry" />
        </mxCell>
        <mxCell id="3v_G94L6314WxcJYYTk_-189" value="Contact" style="rounded=1;whiteSpace=wrap;html=1;" vertex="1" parent="3v_G94L6314WxcJYYTk_-187">
          <mxGeometry x="510" y="10" width="70" height="20" as="geometry" />
        </mxCell>
        <mxCell id="3v_G94L6314WxcJYYTk_-191" value="Get Help" style="rounded=1;whiteSpace=wrap;html=1;" vertex="1" parent="3v_G94L6314WxcJYYTk_-187">
          <mxGeometry x="380" y="10" width="70" height="20" as="geometry" />
        </mxCell>
        <mxCell id="3v_G94L6314WxcJYYTk_-192" value="FaQ" style="rounded=1;whiteSpace=wrap;html=1;" vertex="1" parent="3v_G94L6314WxcJYYTk_-187">
          <mxGeometry x="260" y="10" width="70" height="20" as="geometry" />
        </mxCell>
        <mxCell id="3v_G94L6314WxcJYYTk_-195" value="Follow Us" style="text;html=1;align=center;verticalAlign=middle;resizable=0;points=[];autosize=1;strokeColor=none;fillColor=none;" vertex="1" parent="3v_G94L6314WxcJYYTk_-187">
          <mxGeometry x="240" y="40" width="80" height="30" as="geometry" />
        </mxCell>
        <mxCell id="3v_G94L6314WxcJYYTk_-211" value="&amp;nbsp;© &lt;span class=&quot;hljs-number&quot;&gt;2024&lt;/span&gt; &lt;span class=&quot;hljs-selector-tag&quot;&gt;Q&lt;/span&gt;&lt;span class=&quot;hljs-selector-tag&quot;&gt;&amp;amp;&lt;/span&gt;&lt;span class=&quot;hljs-selector-tag&quot;&gt;A&lt;/span&gt; &lt;span class=&quot;hljs-selector-tag&quot;&gt;Forum&lt;/span&gt;. &lt;span class=&quot;hljs-keyword&quot;&gt;All&lt;/span&gt; &lt;span class=&quot;hljs-selector-tag&quot;&gt;Rights&lt;/span&gt; &lt;span class=&quot;hljs-selector-tag&quot;&gt;Reserved&lt;/span&gt;." style="text;html=1;align=center;verticalAlign=middle;whiteSpace=wrap;rounded=0;" vertex="1" parent="3v_G94L6314WxcJYYTk_-187">
          <mxGeometry x="230" y="70" width="260" height="30" as="geometry" />
        </mxCell>
        <mxCell id="3v_G94L6314WxcJYYTk_-212" value="" style="group" vertex="1" connectable="0" parent="3v_G94L6314WxcJYYTk_-187">
          <mxGeometry x="334" y="40" width="140" height="30" as="geometry" />
        </mxCell>
        <mxCell id="3v_G94L6314WxcJYYTk_-208" value="icon" style="ellipse;whiteSpace=wrap;html=1;aspect=fixed;" vertex="1" parent="3v_G94L6314WxcJYYTk_-212">
          <mxGeometry width="30" height="30" as="geometry" />
        </mxCell>
        <mxCell id="3v_G94L6314WxcJYYTk_-209" value="icon" style="ellipse;whiteSpace=wrap;html=1;aspect=fixed;" vertex="1" parent="3v_G94L6314WxcJYYTk_-212">
          <mxGeometry x="53.5" width="30" height="30" as="geometry" />
        </mxCell>
        <mxCell id="3v_G94L6314WxcJYYTk_-210" value="icon" style="ellipse;whiteSpace=wrap;html=1;aspect=fixed;" vertex="1" parent="3v_G94L6314WxcJYYTk_-212">
          <mxGeometry x="110" width="30" height="30" as="geometry" />
        </mxCell>
      </root>
    </mxGraphModel>
  </diagram>
</mxfile>
